<svg xmlns="http://www.w3.org/2000/svg" viewBox="0 0 32 32">
  <defs>
    <linearGradient id="bg" x1="0" y1="0" x2="1" y2="1">
      <stop offset="0%" stop-color="#3B82F6"/>
      <stop offset="100%" stop-color="#1D4ED8"/>
    </linearGradient>
  </defs>
  <rect width="32" height="32" rx="8" fill="url(#bg)"/>
  <path d="M9 22V10h4.5c1.2 0 2.1.3 2.7.9.6.6.9 1.4.9 2.3 0 .7-.2 1.2-.5 1.7-.3.4-.8.7-1.4.9.7.1 1.3.5 1.7 1 .4.5.6 1.1.6 1.9 0 1-.3 1.8-1 2.4-.6.6-1.6.9-2.8.9H9zm2.8-7.2h1.3c.5 0 .8-.1 1.1-.4.2-.2.4-.6.4-1s-.1-.7-.4-1c-.2-.2-.6-.4-1-.4h-1.4v2.8zm0 5h1.5c.5 0 .9-.1 1.2-.4.3-.3.4-.6.4-1.1 0-.5-.1-.8-.4-1.1-.3-.3-.7-.4-1.2-.4h-1.5v3zM19.5 22V10H22v12h-2.5z" fill="white" fill-opacity="0.95"/>
  <circle cx="25.5" cy="9.5" r="3" fill="#22C55E"/>
  <path d="M24.3 9.5l.7.7 1.4-1.4" stroke="white" stroke-width="1.2" stroke-linecap="round" stroke-linejoin="round" fill="none"/>
</svg>
